<svg width="19" height="18" viewBox="0 0 19 18" fill="none" xmlns="http://www.w3.org/2000/svg">
<g id="vuesax/linear/coin">
<g id="vuesax/linear/coin_2">
<g id="coin">
<path id="Vector" d="M7.82587 13.485C11.1354 13.485 13.8184 10.8021 13.8184 7.4925C13.8184 4.18293 11.1354 1.5 7.82587 1.5C4.51631 1.5 1.83337 4.18293 1.83337 7.4925C1.83337 10.8021 4.51631 13.485 7.82587 13.485Z" fill="#05422C" stroke="#05422C" stroke-width="1.5" stroke-linecap="round" stroke-linejoin="round"/>
<path id="Vector_2" d="M10.0681 14.9098C10.7431 15.8623 11.8456 16.4848 13.1056 16.4848C15.1531 16.4848 16.8181 14.8198 16.8181 12.7723C16.8181 11.5273 16.2031 10.4248 15.2656 9.74976" stroke="#C3D2CC" stroke-width="1.5" stroke-linecap="round" stroke-linejoin="round"/>
<path id="Vector_3" d="M6.33337 8.5499C6.33337 9.1274 6.78337 9.5999 7.33087 9.5999H8.45587C8.93587 9.5999 9.32587 9.1874 9.32587 8.6849C9.32587 8.1374 9.08587 7.9424 8.73337 7.8149L6.93337 7.1849C6.57337 7.0574 6.33337 6.8624 6.33337 6.3149C6.33337 5.8124 6.72337 5.3999 7.20337 5.3999H8.32837C8.88337 5.4074 9.33337 5.8724 9.33337 6.4499" stroke="white" stroke-width="1.5" stroke-linecap="round" stroke-linejoin="round"/>
<path id="Vector_4" d="M7.83313 9.63745V10.1925" stroke="white" stroke-width="1.5" stroke-linecap="round" stroke-linejoin="round"/>
<path id="Vector_5" d="M7.83313 4.80762V5.39262" stroke="white" stroke-width="1.5" stroke-linecap="round" stroke-linejoin="round"/>
</g>
</g>
</g>
</svg>
