<svg width="15" height="14" viewBox="0 0 15 14" fill="none" xmlns="http://www.w3.org/2000/svg">
<g id="vuesax/linear/wallet">
<path id="Vector" d="M13.3334 6.99992V9.91659C13.3334 11.6666 12.1667 12.8333 10.4167 12.8333H4.58341C2.83341 12.8333 1.66675 11.6666 1.66675 9.91659V6.99992C1.66675 5.41325 2.62341 4.30492 4.11091 4.11825C4.26258 4.09492 4.42008 4.08325 4.58341 4.08325H10.4167C10.5684 4.08325 10.7142 4.08908 10.8542 4.11241C12.3592 4.28741 13.3334 5.40159 13.3334 6.99992Z" stroke="white" stroke-linecap="round" stroke-linejoin="round"/>
<path id="Vector_2" d="M10.8549 4.11258C10.7149 4.08925 10.5691 4.08342 10.4174 4.08342H4.58407C4.42074 4.08342 4.26324 4.09509 4.11157 4.11842C4.19324 3.95509 4.30991 3.80342 4.44991 3.66342L6.34574 1.76175C7.14491 0.968415 8.4399 0.968415 9.23907 1.76175L10.2599 2.79426C10.6332 3.16176 10.8316 3.62841 10.8549 4.11258Z" stroke="white" stroke-linecap="round" stroke-linejoin="round"/>
<path id="Vector_3" d="M13.3334 7.29175H11.5834C10.9417 7.29175 10.4167 7.81675 10.4167 8.45841C10.4167 9.10008 10.9417 9.62508 11.5834 9.62508H13.3334" stroke="white" stroke-linecap="round" stroke-linejoin="round"/>
</g>
</svg>
