<svg width="11" height="10" viewBox="0 0 11 10" fill="none" xmlns="http://www.w3.org/2000/svg">
<g id="vuesax/linear/star">
<g id="star">
<path id="Vector" d="M6.2208 1.46248L6.95413 2.92914C7.05413 3.13331 7.3208 3.32914 7.5458 3.36664L8.87496 3.58748C9.72496 3.72914 9.92496 4.34581 9.31246 4.95414L8.27913 5.98748C8.10413 6.16248 8.0083 6.49998 8.06246 6.74164L8.3583 8.02081C8.59163 9.03331 8.05413 9.42498 7.1583 8.89581L5.91246 8.15831C5.68746 8.02498 5.31663 8.02498 5.08746 8.15831L3.84163 8.89581C2.94996 9.42498 2.4083 9.02914 2.64163 8.02081L2.93746 6.74164C2.99163 6.49998 2.8958 6.16248 2.7208 5.98748L1.68746 4.95414C1.07913 4.34581 1.27496 3.72914 2.12496 3.58748L3.45413 3.36664C3.67496 3.32914 3.94163 3.13331 4.04163 2.92914L4.77496 1.46248C5.17496 0.666642 5.82496 0.666642 6.2208 1.46248Z" fill="#F2BC1B" stroke="#F2BC1B" stroke-width="1.5" stroke-linecap="round" stroke-linejoin="round"/>
</g>
</g>
</svg>
