<svg width="25" height="24" viewBox="0 0 25 24" fill="none" xmlns="http://www.w3.org/2000/svg">
<g id="vuesax/bold/security-time">
<g id="security-time">
<path id="Vector" d="M12.6666 8.25C10.8766 8.25 9.41663 9.71 9.41663 11.5C9.41663 13.29 10.8766 14.75 12.6666 14.75C14.4566 14.75 15.9166 13.29 15.9166 11.5C15.9166 9.71 14.4566 8.25 12.6666 8.25ZM13.6666 11.18C13.6666 11.79 13.3366 12.37 12.8166 12.68L12.0466 13.14C11.9266 13.21 11.7966 13.25 11.6566 13.25C11.4066 13.25 11.1566 13.12 11.0166 12.89C10.8066 12.53 10.9166 12.07 11.2766 11.86L12.0366 11.4C12.1166 11.35 12.1566 11.27 12.1566 11.19V10.26C12.1566 9.85 12.4966 9.51 12.9066 9.51C13.3166 9.51 13.6666 9.84 13.6666 10.25V11.18Z" fill="#05422C"/>
<path id="Vector_2" d="M19.2067 4.16989L13.7067 2.10989C13.1367 1.89989 12.2067 1.89989 11.6367 2.10989L6.13667 4.16989C5.07667 4.56989 4.21667 5.80989 4.21667 6.93989V15.0399C4.21667 15.8499 4.74667 16.9199 5.39667 17.3999L10.8967 21.5099C11.8667 22.2399 13.4567 22.2399 14.4267 21.5099L19.9267 17.3999C20.5767 16.9099 21.1067 15.8499 21.1067 15.0399V6.93989C21.1167 5.80989 20.2567 4.56989 19.2067 4.16989ZM12.6667 16.2499C10.0467 16.2499 7.91667 14.1199 7.91667 11.4999C7.91667 8.87989 10.0467 6.74989 12.6667 6.74989C15.2867 6.74989 17.4167 8.87989 17.4167 11.4999C17.4167 14.1199 15.2867 16.2499 12.6667 16.2499Z" fill="#05422C"/>
</g>
</g>
</svg>
